<svg width="137" height="42" viewBox="0 0 137 42" fill="none" xmlns="http://www.w3.org/2000/svg">
<path d="M54.0079 25.0658L53.8139 20.7964L63.9884 10.2338H68.036L59.5803 19.2161L57.5843 21.4063L54.0079 25.0658ZM50.792 29.6401V10.2338H54.3961V29.6401H50.792ZM64.321 29.6401L56.8912 20.7964L59.2754 18.1627L68.535 29.6401H64.321ZM76.4344 29.8342C75.1776 29.8342 74.0687 29.6032 73.1076 29.1411C72.1465 28.6606 71.398 27.9398 70.862 26.9787C70.326 25.9991 70.0581 24.7701 70.0581 23.2915V14.8358H73.5235V22.8202C73.5235 24.1509 73.8192 25.1489 74.4106 25.8143C75.0205 26.4612 75.88 26.7846 76.9889 26.7846C77.8021 26.7846 78.5044 26.6183 79.0959 26.2856C79.7058 25.9529 80.1771 25.4539 80.5098 24.7885C80.8609 24.1232 81.0365 23.3007 81.0365 22.3212V14.8358H84.5019V29.6401H81.2029V25.648L81.785 26.8678C81.286 27.8289 80.556 28.5682 79.5949 29.0857C78.6338 29.5847 77.5803 29.8342 76.4344 29.8342ZM93.6136 29.8342C92.3753 29.8342 91.1832 29.6771 90.0373 29.3629C88.9099 29.0302 88.0135 28.6329 87.3481 28.1708L88.6789 25.5371C89.3442 25.9622 90.139 26.3133 91.0631 26.5906C91.9872 26.8678 92.9113 27.0064 93.8354 27.0064C94.9259 27.0064 95.7114 26.8586 96.1919 26.5628C96.6909 26.2671 96.9404 25.8698 96.9404 25.3707C96.9404 24.9641 96.7741 24.6592 96.4414 24.4559C96.1087 24.2341 95.6744 24.0677 95.1384 23.9568C94.6024 23.8459 94.0017 23.7443 93.3364 23.6519C92.6895 23.5595 92.0334 23.4393 91.368 23.2915C90.7211 23.1251 90.1297 22.8941 89.5937 22.5984C89.0577 22.2842 88.6234 21.8683 88.2907 21.3508C87.958 20.8333 87.7917 20.1495 87.7917 19.2993C87.7917 18.3567 88.0597 17.5435 88.5957 16.8597C89.1317 16.1573 89.8802 15.6213 90.8413 15.2517C91.8208 14.8636 92.976 14.6695 94.3067 14.6695C95.3047 14.6695 96.312 14.7804 97.3286 15.0022C98.3451 15.224 99.186 15.5382 99.8514 15.9448L98.5207 18.5785C97.8183 18.1534 97.1068 17.8669 96.386 17.7191C95.6836 17.5527 94.9813 17.4696 94.279 17.4696C93.2255 17.4696 92.44 17.6267 91.9225 17.9409C91.4235 18.2551 91.174 18.6524 91.174 19.133C91.174 19.5765 91.3403 19.9092 91.673 20.131C92.0057 20.3528 92.44 20.5284 92.976 20.6578C93.512 20.7871 94.1034 20.898 94.7503 20.9904C95.4156 21.0644 96.0718 21.1845 96.7186 21.3508C97.3655 21.5172 97.9569 21.7482 98.4929 22.0439C99.0474 22.3212 99.491 22.7185 99.8237 23.236C100.156 23.7535 100.323 24.4281 100.323 25.2598C100.323 26.184 100.045 26.9879 99.491 27.6718C98.955 28.3556 98.188 28.8916 97.1899 29.2797C96.1919 29.6494 94.9998 29.8342 93.6136 29.8342ZM106.135 26.3411L106.218 21.9885L113.953 14.8358H118.111L111.541 21.434L109.711 22.9588L106.135 26.3411ZM103.307 29.6401V9.06938H106.772V29.6401H103.307ZM114.48 29.6401L109.074 22.9588L111.264 20.1865L118.694 29.6401H114.48ZM129.782 29.6401V26.646L129.588 26.0084V20.7687C129.588 19.7521 129.283 18.9666 128.673 18.4122C128.063 17.8392 127.139 17.5527 125.901 17.5527C125.069 17.5527 124.247 17.6821 123.434 17.9409C122.639 18.1996 121.964 18.56 121.41 19.0221L120.051 16.4993C120.846 15.8893 121.789 15.4365 122.879 15.1408C123.988 14.8266 125.134 14.6695 126.317 14.6695C128.461 14.6695 130.115 15.187 131.279 16.222C132.462 17.2385 133.054 18.8188 133.054 20.9627V29.6401H129.782ZM125.125 29.8342C124.016 29.8342 123.045 29.6494 122.214 29.2797C121.382 28.8916 120.735 28.3649 120.273 27.6995C119.83 27.0157 119.608 26.2486 119.608 25.3985C119.608 24.5668 119.802 23.8182 120.19 23.1529C120.597 22.4875 121.253 21.9608 122.158 21.5726C123.064 21.1845 124.265 20.9904 125.762 20.9904H130.059V23.2915H126.012C124.829 23.2915 124.034 23.4855 123.628 23.8737C123.221 24.2433 123.018 24.7054 123.018 25.2598C123.018 25.8882 123.267 26.3873 123.766 26.7569C124.265 27.1265 124.958 27.3114 125.846 27.3114C126.696 27.3114 127.453 27.1173 128.119 26.7292C128.803 26.3411 129.292 25.7681 129.588 25.0103L130.17 27.0896C129.838 27.9583 129.237 28.6329 128.368 29.1134C127.518 29.5939 126.437 29.8342 125.125 29.8342Z" fill="#ECE7E7"/>
<circle cx="20.7925" cy="20.7925" r="20.7925" fill="#ECE7E7"/>
<circle cx="20.7929" cy="20.7924" r="18.0464" fill="#491010"/>
<circle cx="20.7929" cy="20.7924" r="18.0464" fill="#B72727"/>
<path d="M20.7925 10.3962C13.927 10.3962 8.06393 14.6666 5.68848 20.6944C8.06393 26.7223 13.927 30.9926 20.7925 30.9926C27.658 30.9926 33.5211 26.7223 35.8965 20.6944C33.5211 14.6666 27.658 10.3962 20.7925 10.3962ZM20.7925 27.5599C17.0028 27.5599 13.927 24.4842 13.927 20.6944C13.927 16.9047 17.0028 13.829 20.7925 13.829C24.5822 13.829 27.658 16.9047 27.658 20.6944C27.658 24.4842 24.5822 27.5599 20.7925 27.5599ZM20.7925 16.5752C18.5132 16.5752 16.6732 18.4151 16.6732 20.6944C16.6732 22.9738 18.5132 24.8137 20.7925 24.8137C23.0718 24.8137 24.9118 22.9738 24.9118 20.6944C24.9118 18.4151 23.0718 16.5752 20.7925 16.5752Z" fill="#ECE7E7"/>
</svg>
