<svg width="108" height="42" viewBox="0 0 108 42" fill="none" xmlns="http://www.w3.org/2000/svg">
<path d="M0 0H108V42H0V0Z" fill="black"/>
<path d="M18.292 22.104L17.144 23.616V30H14.036V12.556H17.116H17.368V12.808C17.2747 12.92 17.2093 13.0413 17.172 13.172C17.1533 13.3027 17.144 13.5267 17.144 13.844V19.696L22.94 12.388C23.0893 12.4253 23.248 12.4533 23.416 12.472C23.6027 12.4907 23.7893 12.5093 23.976 12.528C24.1813 12.5467 24.368 12.556 24.536 12.556C24.7227 12.556 24.872 12.556 24.984 12.556H26.44L20.532 19.864L26.776 29.972L23.164 30.112L18.292 22.104ZM36.296 30.336C35.7733 30.336 35.2787 30.2613 34.812 30.112C34.3453 29.9813 33.9253 29.776 33.552 29.496C33.1787 29.1973 32.852 28.824 32.572 28.376C32.3107 27.928 32.1053 27.396 31.956 26.78C31.8067 26.1453 31.732 25.4267 31.732 24.624V16.98H34.924V24.624C34.924 25.2027 34.9707 25.6973 35.064 26.108C35.1573 26.5 35.2973 26.8267 35.484 27.088C35.6707 27.3307 35.8853 27.508 36.128 27.62C36.3893 27.732 36.66 27.788 36.94 27.788C37.332 27.788 37.6867 27.7227 38.004 27.592C38.34 27.4427 38.62 27.228 38.844 26.948C39.0867 26.668 39.2733 26.3227 39.404 25.912C39.5347 25.4827 39.6 24.9787 39.6 24.4V16.98H42.764V27.928C42.764 28.3387 42.7733 28.712 42.792 29.048C42.8293 29.3653 42.9133 29.6827 43.044 30H40.16C40.0667 29.8133 40.0013 29.6267 39.964 29.44C39.9267 29.2533 39.8987 29.0667 39.88 28.88C39.88 28.6747 39.88 28.488 39.88 28.32C39.6747 28.6373 39.4413 28.9267 39.18 29.188C38.9187 29.4307 38.6293 29.636 38.312 29.804C38.0133 29.972 37.6867 30.1027 37.332 30.196C36.996 30.2893 36.6507 30.336 36.296 30.336ZM54.972 30.308C54.188 30.308 53.432 30.2333 52.704 30.084C51.976 29.9533 51.304 29.7387 50.688 29.44C50.072 29.1227 49.5027 28.7213 48.98 28.236L50.38 25.66L50.492 25.436L50.716 25.576C50.772 25.7067 50.828 25.856 50.884 26.024C50.94 26.1733 51.08 26.3507 51.304 26.556C51.7707 26.948 52.3027 27.256 52.9 27.48C53.4973 27.704 54.2067 27.816 55.028 27.816C55.5507 27.816 55.9893 27.76 56.344 27.648C56.7173 27.5173 56.9973 27.3493 57.184 27.144C57.3893 26.92 57.492 26.668 57.492 26.388C57.492 26.164 57.436 25.968 57.324 25.8C57.212 25.632 57.0347 25.4827 56.792 25.352C56.5493 25.2213 56.232 25.0907 55.84 24.96C55.448 24.8107 54.9813 24.652 54.44 24.484C53.488 24.2413 52.6573 23.9427 51.948 23.588C51.2573 23.2147 50.7253 22.7667 50.352 22.244C49.9787 21.7213 49.792 21.1147 49.792 20.424C49.792 19.696 49.9973 19.052 50.408 18.492C50.8373 17.932 51.4347 17.4933 52.2 17.176C52.9653 16.84 53.8707 16.672 54.916 16.672C55.4573 16.672 55.9707 16.7187 56.456 16.812C56.9413 16.8867 57.3987 17.008 57.828 17.176C58.276 17.3253 58.6867 17.5307 59.06 17.792C59.452 18.0347 59.816 18.324 60.152 18.66L58.612 20.816L58.416 21.04L58.22 20.872C58.2013 20.7227 58.1547 20.5827 58.08 20.452C58.024 20.3027 57.884 20.1253 57.66 19.92C57.2867 19.64 56.8573 19.4347 56.372 19.304C55.9053 19.1733 55.4387 19.108 54.972 19.108C54.3373 19.108 53.7867 19.2107 53.32 19.416C52.872 19.6213 52.648 19.9387 52.648 20.368C52.648 20.6107 52.7507 20.8347 52.956 21.04C53.1613 21.2267 53.4973 21.4133 53.964 21.6C54.4493 21.768 55.084 21.9547 55.868 22.16C56.9133 22.44 57.7627 22.7667 58.416 23.14C59.088 23.4947 59.5733 23.924 59.872 24.428C60.1893 24.932 60.348 25.52 60.348 26.192C60.348 26.92 60.1427 27.6013 59.732 28.236C59.3213 28.8707 58.7147 29.3747 57.912 29.748C57.128 30.1213 56.148 30.308 54.972 30.308ZM70.792 24.092L69.756 25.128V30H66.536V11.212H69.728H69.98V11.464C69.8867 11.576 69.8213 11.6973 69.784 11.828C69.7653 11.9587 69.756 12.1827 69.756 12.5V21.684L74.74 16.868C74.8893 16.8867 75.048 16.9147 75.216 16.952C75.384 16.9707 75.552 16.9893 75.72 17.008C75.888 17.0267 76.056 17.0453 76.224 17.064C76.392 17.064 76.532 17.064 76.644 17.064H78.156L72.976 22.132L78.856 29.972L75.244 30.112L70.792 24.092ZM87.984 30.336C86.5467 30.336 85.4267 30 84.624 29.328C83.84 28.6373 83.448 27.7507 83.448 26.668C83.448 25.9773 83.5973 25.3427 83.896 24.764C84.2133 24.1667 84.68 23.6533 85.296 23.224C85.912 22.7947 86.6773 22.468 87.592 22.244C88.5067 22.0013 89.552 21.88 90.728 21.88C90.8773 21.88 91.064 21.88 91.288 21.88C91.512 21.88 91.7547 21.8893 92.016 21.908C92.2773 21.908 92.52 21.9267 92.744 21.964L92.828 24.148C92.6413 24.1293 92.4173 24.12 92.156 24.12C91.8947 24.1013 91.624 24.092 91.344 24.092C91.0827 24.0733 90.8587 24.064 90.672 24.064C89.9253 24.064 89.2907 24.12 88.768 24.232C88.264 24.344 87.8533 24.5027 87.536 24.708C87.2187 24.8947 86.9853 25.128 86.836 25.408C86.6867 25.6693 86.612 25.9587 86.612 26.276C86.612 26.5747 86.6587 26.8267 86.752 27.032C86.864 27.2373 87.004 27.4053 87.172 27.536C87.3587 27.648 87.5733 27.732 87.816 27.788C88.0587 27.844 88.32 27.872 88.6 27.872C89.16 27.872 89.6453 27.788 90.056 27.62C90.4853 27.4333 90.84 27.144 91.12 26.752C91.4187 26.36 91.6333 25.8747 91.764 25.296C91.9133 24.6987 91.988 23.9987 91.988 23.196C91.988 22.1133 91.876 21.2827 91.652 20.704C91.428 20.1253 91.1013 19.724 90.672 19.5C90.2427 19.2573 89.7013 19.136 89.048 19.136C88.4507 19.136 87.8813 19.2387 87.34 19.444C86.8173 19.6307 86.304 19.9853 85.8 20.508L84.064 18.604C84.792 17.9133 85.604 17.4187 86.5 17.12C87.396 16.8213 88.292 16.672 89.188 16.672C90.0093 16.672 90.7747 16.7653 91.484 16.952C92.1933 17.1387 92.8093 17.456 93.332 17.904C93.8733 18.3333 94.2933 18.9307 94.592 19.696C94.9093 20.4427 95.068 21.376 95.068 22.496V30H91.792V28.6C91.5493 28.9173 91.288 29.188 91.008 29.412C90.728 29.636 90.4293 29.8133 90.112 29.944C89.7947 30.0747 89.4587 30.168 89.104 30.224C88.7493 30.2987 88.376 30.336 87.984 30.336Z" fill="#D9D9D9"/>
</svg>
